<svg width="15" height="17" viewBox="0 0 15 17" fill="none" xmlns="http://www.w3.org/2000/svg">
<mask id="mask0_2_488" style="mask-type:alpha" maskUnits="userSpaceOnUse" x="0" y="0" width="15" height="14">
<path fill-rule="evenodd" clip-rule="evenodd" d="M0.250061 0.75H14.1227V13.761H0.250061V0.75Z" fill="white"/>
</mask>
<g mask="url(#mask0_2_488)">
<path fill-rule="evenodd" clip-rule="evenodd" d="M7.18531 1.875C4.56406 1.875 2.73706 3.9285 2.73706 5.77125C2.73706 7.3305 2.30431 8.05125 1.92181 8.68725C1.61506 9.198 1.37281 9.6015 1.37281 10.4782C1.49806 11.8927 2.43181 12.636 7.18531 12.636C11.9126 12.636 12.8756 11.8597 13.0001 10.4295C12.9978 9.6015 12.7556 9.198 12.4488 8.68725C12.0663 8.05125 11.6336 7.3305 11.6336 5.77125C11.6336 3.9285 9.80656 1.875 7.18531 1.875ZM7.18532 13.761C3.67832 13.761 0.508821 13.5135 0.250071 10.5262C0.247821 9.29025 0.625071 8.66175 0.958071 8.10825C1.29482 7.54725 1.61207 7.0185 1.61207 5.77125C1.61207 3.3465 3.85157 0.75 7.18532 0.75C10.5191 0.75 12.7586 3.3465 12.7586 5.77125C12.7586 7.0185 13.0758 7.54725 13.4126 8.10825C13.7456 8.66175 14.1228 9.29025 14.1228 10.4782C13.8611 13.5135 10.6923 13.761 7.18532 13.761Z" fill="#1D1617"/>
</g>
<path fill-rule="evenodd" clip-rule="evenodd" d="M7.1487 16.875H7.1472C6.30645 16.8742 5.5107 16.5037 4.90695 15.831C4.6992 15.6007 4.71795 15.2445 4.94895 15.0375C5.17995 14.829 5.53545 14.8477 5.7432 15.0795C6.1317 15.5122 6.63045 15.75 7.14795 15.75H7.1487C7.66845 15.75 8.16945 15.5122 8.5587 15.0787C8.7672 14.8485 9.1227 14.8297 9.35295 15.0375C9.58395 15.2452 9.6027 15.6015 9.39495 15.8317C8.78895 16.5045 7.9917 16.875 7.1487 16.875Z" fill="#1D1617"/>
</svg>
