<svg width="29" height="29" viewBox="0 0 29 29" fill="none" xmlns="http://www.w3.org/2000/svg">
<path d="M19.3334 7.24992H22.9584C23.2788 7.24992 23.5862 7.37723 23.8128 7.60383C24.0394 7.83044 24.1667 8.13778 24.1667 8.45825V21.7499C24.1667 22.3909 23.9121 23.0055 23.4589 23.4588C23.0057 23.912 22.391 24.1666 21.75 24.1666C21.1091 24.1666 20.4944 23.912 20.0412 23.4588C19.588 23.0055 19.3334 22.3909 19.3334 21.7499V6.04159C19.3334 5.72112 19.2061 5.41377 18.9795 5.18716C18.7529 4.96056 18.4455 4.83325 18.125 4.83325H6.04171C5.72124 4.83325 5.41389 4.96056 5.18729 5.18716C4.96068 5.41377 4.83337 5.72112 4.83337 6.04159V20.5416C4.83337 21.503 5.21529 22.425 5.89511 23.1048C6.57493 23.7847 7.49696 24.1666 8.45837 24.1666H21.75M9.66671 9.66659H14.5M9.66671 14.4999H14.5M9.66671 19.3333H14.5" stroke="#01C3D5" stroke-width="2.41667" stroke-linecap="round" stroke-linejoin="round"/>
</svg>
