<svg width="104" height="104" viewBox="0 0 104 104" fill="none" xmlns="http://www.w3.org/2000/svg">
<g filter="url(#filter0_d_316_1207)">
<circle cx="52" cy="42" r="30" fill="url(#paint0_linear_316_1207)"/>
</g>
<path fill-rule="evenodd" clip-rule="evenodd" d="M53 30.521C54.0011 30.521 54.8125 31.3325 54.8125 32.3335V40.1877H62.6667C63.6677 40.1877 64.4792 40.9991 64.4792 42.0002C64.4792 43.0012 63.6677 43.8127 62.6667 43.8127H54.8125V51.6668C54.8125 52.6678 54.0011 53.4793 53 53.4793C51.999 53.4793 51.1875 52.6678 51.1875 51.6668V43.8127H43.3334C42.3324 43.8127 41.5209 43.0012 41.5209 42.0002C41.5209 40.9991 42.3324 40.1877 43.3334 40.1877H51.1875V32.3335C51.1875 31.3325 51.999 30.521 53 30.521Z" fill="white"/>
<defs>
<filter id="filter0_d_316_1207" x="0" y="0" width="104" height="104" filterUnits="userSpaceOnUse" color-interpolation-filters="sRGB">
<feFlood flood-opacity="0" result="BackgroundImageFix"/>
<feColorMatrix in="SourceAlpha" type="matrix" values="0 0 0 0 0 0 0 0 0 0 0 0 0 0 0 0 0 0 127 0" result="hardAlpha"/>
<feOffset dy="10"/>
<feGaussianBlur stdDeviation="11"/>
<feColorMatrix type="matrix" values="0 0 0 0 0.584314 0 0 0 0 0.678431 0 0 0 0 0.996078 0 0 0 0.3 0"/>
<feBlend mode="normal" in2="BackgroundImageFix" result="effect1_dropShadow_316_1207"/>
<feBlend mode="normal" in="SourceGraphic" in2="effect1_dropShadow_316_1207" result="shape"/>
</filter>
<linearGradient id="paint0_linear_316_1207" x1="20.381" y1="-16.5" x2="89.1757" y2="-12.3902" gradientUnits="userSpaceOnUse">
<stop stop-color="#019ACF"/>
<stop offset="1" stop-color="#01CAD6"/>
</linearGradient>
</defs>
</svg>
