<svg width="250" height="200" viewBox="0 0 250 200" fill="none" xmlns="http://www.w3.org/2000/svg">
<path fill-rule="evenodd" clip-rule="evenodd" d="M56 127C56 130.866 59.134 134 63 134H209C212.866 134 216 130.866 216 127C216 123.134 212.866 120 209 120H203C199.134 120 196 116.866 196 113C196 109.134 199.134 106 203 106H222C225.866 106 229 102.866 229 99C229 95.134 225.866 92 222 92H200C203.866 92 207 88.866 207 85C207 81.134 203.866 78 200 78H136C139.866 78 143 74.866 143 71C143 67.134 139.866 64 136 64H79C75.134 64 72 67.134 72 71C72 74.866 75.134 78 79 78H39C35.134 78 32 81.134 32 85C32 88.866 35.134 92 39 92H64C67.866 92 71 95.134 71 99C71 102.866 67.866 106 64 106H24C20.134 106 17 109.134 17 113C17 116.866 20.134 120 24 120H63C59.134 120 56 123.134 56 127ZM226 134C229.866 134 233 130.866 233 127C233 123.134 229.866 120 226 120C222.134 120 219 123.134 219 127C219 130.866 222.134 134 226 134Z" fill="#DDFCFF"/>
<path fill-rule="evenodd" clip-rule="evenodd" d="M156.873 142.119C159.911 140.164 162.613 137.725 164.37 135.756L156.873 142.119ZM167.206 132.483C168.659 130.703 169.966 128.841 171.125 126.914C173.675 122.675 175.513 118.122 176.637 113.427C177.773 108.679 178.178 103.787 177.849 98.9301C177.562 94.6922 176.717 90.4813 175.31 86.4173C173.915 82.3853 171.968 78.4977 169.467 74.8714C167.977 72.7105 166.291 70.6424 164.407 68.6917C161.641 65.8278 158.608 63.3795 155.385 61.3481C151.921 59.1655 148.239 57.4643 144.435 56.2463C139.671 54.7211 134.715 53.9538 129.759 53.9483C125.903 53.9439 122.046 54.4007 118.279 55.3203C114.038 56.3555 109.909 57.9774 106.023 60.1883C102.606 62.1318 99.3752 64.5306 96.4182 67.3861C92.7021 70.9747 89.6921 75.02 87.3907 79.3492C85.1375 83.5878 83.5637 88.0986 82.6717 92.7197C81.7528 97.4806 81.5576 102.358 82.0889 107.176C82.7776 113.421 84.6868 119.564 87.8225 125.22C89.829 128.839 92.3377 132.259 95.3502 135.379C100.133 140.331 105.716 144.041 111.696 146.501C118.968 149.492 126.827 150.634 134.545 149.913C141.023 149.308 147.402 147.391 153.251 144.154" fill="white"/>
<path d="M156.197 141.068C155.616 141.442 155.449 142.215 155.822 142.796C156.196 143.376 156.969 143.544 157.55 143.17L156.197 141.068ZM165.303 136.588C165.762 136.073 165.717 135.283 165.202 134.823C164.687 134.363 163.897 134.408 163.437 134.923L165.303 136.588ZM171.125 126.914L170.054 126.269L171.125 126.914ZM176.637 113.427L177.852 113.718L176.637 113.427ZM177.849 98.9301L179.096 98.8457L177.849 98.9301ZM175.31 86.4173L174.129 86.826L175.31 86.4173ZM169.467 74.8714L168.438 75.581L169.467 74.8714ZM164.407 68.6917L163.508 69.56L164.407 68.6917ZM155.385 61.3481L156.051 60.2906L155.385 61.3481ZM144.435 56.2463L144.054 57.4368L144.435 56.2463ZM129.759 53.9483L129.758 55.1983L129.759 53.9483ZM118.279 55.3203L118.575 56.5346L118.279 55.3203ZM106.023 60.1883L105.404 59.1018L106.023 60.1883ZM96.4182 67.3861L97.2865 68.2853L96.4182 67.3861ZM87.3907 79.3492L86.2869 78.7625L87.3907 79.3492ZM82.6717 92.7197L81.4444 92.4828L82.6717 92.7197ZM82.0889 107.176L80.8464 107.313L82.0889 107.176ZM87.8225 125.22L88.9158 124.614L87.8225 125.22ZM95.3502 135.379L96.2494 134.511L95.3502 135.379ZM111.696 146.501L111.221 147.657L111.696 146.501ZM134.545 149.913L134.429 148.669L134.545 149.913ZM153.857 145.247C154.461 144.913 154.679 144.152 154.345 143.548C154.011 142.944 153.25 142.726 152.646 143.06L153.857 145.247ZM157.55 143.17C160.69 141.15 163.476 138.635 165.303 136.588L163.437 134.923C161.749 136.815 159.133 139.179 156.197 141.068L157.55 143.17ZM168.174 133.274C169.665 131.447 171.006 129.536 172.196 127.558L170.054 126.269C168.925 128.146 167.653 129.959 166.237 131.693L168.174 133.274ZM172.196 127.558C174.814 123.208 176.7 118.535 177.852 113.718L175.421 113.136C174.327 117.709 172.537 122.143 170.054 126.269L172.196 127.558ZM177.852 113.718C179.018 108.847 179.434 103.828 179.096 98.8457L176.602 99.0146C176.922 103.746 176.528 108.512 175.421 113.136L177.852 113.718ZM179.096 98.8457C178.802 94.4983 177.935 90.1784 176.492 86.0085L174.129 86.826C175.499 90.7843 176.323 94.886 176.602 99.0146L179.096 98.8457ZM176.492 86.0085C175.06 81.8714 173.062 77.8824 170.496 74.1617L168.438 75.581C170.874 79.113 172.77 82.8992 174.129 86.826L176.492 86.0085ZM170.496 74.1617C168.968 71.9447 167.237 69.8235 165.306 67.8234L163.508 69.56C165.344 71.4612 166.987 73.4763 168.438 75.581L170.496 74.1617ZM165.306 67.8234C162.47 64.8868 159.358 62.375 156.051 60.2906L154.718 62.4056C157.857 64.3839 160.812 66.7689 163.508 69.56L165.306 67.8234ZM156.051 60.2906C152.497 58.051 148.719 56.3054 144.816 55.0559L144.054 57.4368C147.759 58.6231 151.345 60.2799 154.718 62.4056L156.051 60.2906ZM144.816 55.0559C139.928 53.491 134.845 52.704 129.761 52.6983L129.758 55.1983C134.586 55.2037 139.413 55.9512 144.054 57.4368L144.816 55.0559ZM129.761 52.6983C125.805 52.6938 121.848 53.1624 117.983 54.1059L118.575 56.5346C122.244 55.639 126.001 55.194 129.758 55.1983L129.761 52.6983ZM117.983 54.1059C113.63 55.1682 109.394 56.8326 105.404 59.1018L106.641 61.2748C110.425 59.1222 114.445 57.5429 118.575 56.5346L117.983 54.1059ZM105.404 59.1018C101.897 61.0966 98.5828 63.5581 95.5499 66.487L97.2865 68.2853C100.168 65.503 103.314 63.1671 106.641 61.2748L105.404 59.1018ZM95.5499 66.487C91.7383 70.1678 88.6491 74.3188 86.2869 78.7625L88.4944 79.936C90.735 75.7211 93.666 71.7816 97.2865 68.2853L95.5499 66.487ZM86.2869 78.7625C83.9744 83.1127 82.3595 87.7417 81.4444 92.4828L83.8991 92.9566C84.7679 88.4556 86.3006 84.0629 88.4944 79.936L86.2869 78.7625ZM81.4444 92.4828C80.5016 97.3672 80.3014 102.371 80.8464 107.313L83.3314 107.039C82.8138 102.346 83.004 97.594 83.8991 92.9566L81.4444 92.4828ZM80.8464 107.313C81.5529 113.719 83.5116 120.022 86.7293 125.826L88.9158 124.614C85.8619 119.106 84.0022 113.122 83.3314 107.039L80.8464 107.313ZM86.7293 125.826C88.7883 129.54 91.362 133.048 94.4511 136.247L96.2494 134.511C93.3134 131.47 90.8698 128.139 88.9158 124.614L86.7293 125.826ZM94.4511 136.247C99.3555 141.326 105.084 145.133 111.221 147.657L112.171 145.345C106.348 142.949 100.91 139.337 96.2494 134.511L94.4511 136.247ZM111.221 147.657C118.682 150.726 126.744 151.897 134.661 151.158L134.429 148.669C126.91 149.371 119.254 148.258 112.171 145.345L111.221 147.657ZM134.661 151.158C141.307 150.537 147.853 148.57 153.857 145.247L152.646 143.06C146.951 146.212 140.739 148.079 134.429 148.669L134.661 151.158Z" fill="#01C3D5"/>
<path d="M176.5 45V51" stroke="#D1FAFF" stroke-width="2.5" stroke-linecap="round" stroke-linejoin="round"/>
<path d="M176.5 59V65" stroke="#D1FAFF" stroke-width="2.5" stroke-linecap="round" stroke-linejoin="round"/>
<path d="M166.5 55H172.5" stroke="#D1FAFF" stroke-width="2.5" stroke-linecap="round" stroke-linejoin="round"/>
<path d="M180.5 55H186.5" stroke="#D1FAFF" stroke-width="2.5" stroke-linecap="round" stroke-linejoin="round"/>
<path d="M93.5 148V152" stroke="#D1FAFF" stroke-width="2.5" stroke-linecap="round" stroke-linejoin="round"/>
<path d="M93.5 160V164" stroke="#D1FAFF" stroke-width="2.5" stroke-linecap="round" stroke-linejoin="round"/>
<path d="M85.5 156H89.5" stroke="#D1FAFF" stroke-width="2.5" stroke-linecap="round" stroke-linejoin="round"/>
<path d="M97.5 156H101.5" stroke="#D1FAFF" stroke-width="2.5" stroke-linecap="round" stroke-linejoin="round"/>
<path fill-rule="evenodd" clip-rule="evenodd" d="M115.182 62.7009C113.144 63.4658 111.152 64.3952 109.228 65.4896C106.238 67.1902 103.412 69.289 100.824 71.7877C99.7638 72.8119 98.7689 73.8786 97.8398 74.9827M94.9649 78.8265C94.2261 79.9429 93.5462 81.0873 92.9253 82.2554C92.4667 83.1181 92.0403 83.9936 91.6461 84.8803" fill="white"/>
<path d="M115.622 63.8712C116.268 63.6287 116.595 62.9082 116.353 62.2618C116.11 61.6155 115.39 61.2881 114.743 61.5305L115.622 63.8712ZM109.228 65.4896L109.846 66.5761L109.228 65.4896ZM100.824 71.7877L99.9561 70.8885L100.824 71.7877ZM96.8834 74.1778C96.4389 74.706 96.5067 75.4946 97.0349 75.9391C97.5631 76.3836 98.3517 76.3157 98.7962 75.7875L96.8834 74.1778ZM96.0073 79.5164C96.3883 78.9407 96.2304 78.1651 95.6547 77.7841C95.079 77.4031 94.3034 77.561 93.9224 78.1367L96.0073 79.5164ZM92.9253 82.2554L94.029 82.8421L92.9253 82.2554ZM90.5039 84.3725C90.2234 85.0033 90.5074 85.742 91.1382 86.0225C91.769 86.303 92.5078 86.019 92.7882 85.3882L90.5039 84.3725ZM114.743 61.5305C112.643 62.3184 110.592 63.2757 108.61 64.403L109.846 66.5761C111.712 65.5147 113.644 64.6132 115.622 63.8712L114.743 61.5305ZM108.61 64.403C105.53 66.1549 102.619 68.3166 99.9561 70.8885L101.693 72.6868C104.204 70.2615 106.947 68.2254 109.846 66.5761L108.61 64.403ZM99.9561 70.8885C98.8644 71.9427 97.8401 73.0409 96.8834 74.1778L98.7962 75.7875C99.6976 74.7164 100.663 73.6811 101.693 72.6868L99.9561 70.8885ZM93.9224 78.1367C93.1615 79.2866 92.4612 80.4655 91.8216 81.6687L94.029 82.8421C94.6313 81.7092 95.2907 80.5992 96.0073 79.5164L93.9224 78.1367ZM91.8216 81.6687C91.3492 82.5573 90.9099 83.4592 90.5039 84.3725L92.7882 85.3882C93.1706 84.5281 93.5843 83.6788 94.029 82.8421L91.8216 81.6687Z" fill="#D1FAFF"/>
<path d="M110.98 101.369C109.524 100.057 107.265 100.157 105.935 101.593C104.604 103.03 104.706 105.257 106.163 106.569L122.971 121.71C125.01 123.546 128.172 123.405 130.035 121.395C130.113 121.309 130.113 121.309 130.188 121.222L154.175 92.7735C155.436 91.2779 155.228 89.0574 153.712 87.8139C152.195 86.5703 149.943 86.7747 148.682 88.2703L126.131 115.016L110.98 101.369Z" fill="#D1FAFF" stroke="#01C3D5" stroke-width="2.5"/>
</svg>
