<svg width="31" height="23" viewBox="0 0 31 23" fill="none" xmlns="http://www.w3.org/2000/svg">
<path d="M20.1403 16.3335C21.0172 15.51 21.6192 14.4534 21.8696 13.2987C22.1199 12.144 22.0071 10.9436 21.5457 9.8509C21.0842 8.75823 20.295 7.82289 19.279 7.16442C18.2629 6.50595 17.0661 6.15424 15.8414 6.15424C14.6168 6.15424 13.42 6.50595 12.4039 7.16442C11.3878 7.82289 10.5986 8.75823 10.1372 9.8509C9.67573 10.9436 9.56297 12.144 9.8133 13.2987C10.0636 14.4534 10.6657 15.51 11.5426 16.3335C9.8904 17.1914 8.56042 18.5284 7.74107 20.155C7.57461 20.4817 7.54971 20.8588 7.67186 21.2032C7.79401 21.5476 8.05321 21.8312 8.39242 21.9916C8.73163 22.1519 9.12308 22.1759 9.48065 22.0582C9.83822 21.9406 10.1326 21.6909 10.2991 21.3642C10.8033 20.3612 11.5907 19.5154 12.5709 18.9236C13.5511 18.3318 14.6846 18.0179 15.8414 18.0179C16.9983 18.0179 18.1317 18.3318 19.112 18.9236C20.0922 19.5154 20.8795 20.3612 21.3838 21.3642C21.5013 21.5941 21.6835 21.7877 21.9096 21.9228C22.1357 22.0579 22.3967 22.1292 22.6628 22.1285C22.876 22.1268 23.0862 22.0801 23.2786 21.9916C23.4479 21.9135 23.5995 21.804 23.7246 21.6692C23.8497 21.5345 23.9459 21.3772 24.0076 21.2064C24.0692 21.0356 24.0952 20.8548 24.0839 20.6743C24.0726 20.4939 24.0243 20.3174 23.9418 20.155C23.1224 18.5284 21.7925 17.1914 20.1403 16.3335ZM12.5255 12.0899C12.5255 11.4582 12.72 10.8406 13.0843 10.3154C13.4487 9.79009 13.9666 9.3807 14.5725 9.13895C15.1784 8.89719 15.8451 8.83394 16.4883 8.95718C17.1316 9.08043 17.7224 9.38464 18.1862 9.83134C18.6499 10.278 18.9657 10.8472 19.0937 11.4668C19.2216 12.0864 19.1559 12.7286 18.905 13.3122C18.654 13.8959 18.229 14.3947 17.6837 14.7457C17.1384 15.0967 16.4973 15.284 15.8414 15.284C14.963 15.281 14.1213 14.9435 13.5002 14.3451C12.879 13.7468 12.5286 12.9361 12.5255 12.0899ZM30.4316 13.185C30.13 13.4028 29.751 13.4964 29.3779 13.445C29.0048 13.3937 28.6681 13.2017 28.442 12.9112C27.9968 12.3338 27.4366 11.8477 26.794 11.4814C26.1514 11.1151 25.4394 10.876 24.6997 10.778C24.419 10.7376 24.1573 10.6171 23.9484 10.432C23.7394 10.247 23.5928 10.006 23.5273 9.73996C23.5023 9.68867 23.4825 9.63519 23.4681 9.58026C23.4201 9.40646 23.4084 9.22521 23.4338 9.04703C23.4591 8.86886 23.521 8.69731 23.6157 8.54235C23.7105 8.3874 23.8363 8.25212 23.9858 8.14439C24.1353 8.03665 24.3055 7.9586 24.4866 7.91477C24.8713 7.81768 25.2244 7.62885 25.5134 7.36567C25.8024 7.1025 26.018 6.77347 26.1402 6.40893C26.2624 6.04438 26.2874 5.65606 26.2128 5.27978C26.1382 4.9035 25.9664 4.55137 25.7133 4.25587C25.4602 3.96037 25.1339 3.73101 24.7646 3.58895C24.3953 3.44689 23.9947 3.3967 23.5999 3.44301C23.2052 3.48932 22.8288 3.63064 22.5057 3.85394C22.1825 4.07723 21.923 4.37531 21.7509 4.72069C21.6804 4.89658 21.5729 5.05654 21.4351 5.19054C21.2974 5.32454 21.1324 5.42968 20.9505 5.49938C20.7686 5.56908 20.5738 5.60183 20.3781 5.59557C20.1825 5.58932 19.9903 5.5442 19.8136 5.46303C19.6369 5.38187 19.4795 5.26642 19.3513 5.12392C19.2231 4.98143 19.1268 4.81495 19.0686 4.63494C19.0103 4.45492 18.9913 4.26525 19.0126 4.07782C19.034 3.89039 19.0954 3.70923 19.1929 3.54572C19.51 2.90063 19.9663 2.3281 20.5314 1.86636C21.0964 1.40461 21.7572 1.06426 22.4696 0.868008C23.1821 0.671761 23.9298 0.624134 24.6628 0.728305C25.3959 0.832476 26.0974 1.08605 26.7207 1.4721C27.3439 1.85816 27.8745 2.36781 28.2771 2.96706C28.6796 3.56631 28.9449 4.24137 29.0551 4.94719C29.1653 5.65301 29.118 6.37336 28.9163 7.06016C28.7146 7.74697 28.3631 8.38444 27.8854 8.93003C28.9984 9.49598 29.9656 10.2951 30.7158 11.2686C30.8277 11.4124 30.9092 11.576 30.9555 11.7502C31.0019 11.9243 31.0121 12.1055 30.9857 12.2835C30.9593 12.4614 30.8968 12.6327 30.8017 12.7873C30.7066 12.942 30.5809 13.0772 30.4316 13.185ZM6.98315 10.778C6.24343 10.876 5.53144 11.1151 4.88886 11.4814C4.24628 11.8477 3.68601 12.3338 3.24088 12.9112C3.10725 13.08 2.93535 13.217 2.7383 13.3119C2.54125 13.4068 2.32428 13.4571 2.10398 13.4588C1.79677 13.4572 1.49809 13.3613 1.25131 13.185C0.949791 12.9672 0.750452 12.6429 0.69715 12.2835C0.643848 11.9241 0.740948 11.559 0.96709 11.2686C1.71725 10.2951 2.68443 9.49598 3.79748 8.93003C3.31972 8.38444 2.96826 7.74697 2.76655 7.06016C2.56484 6.37336 2.51752 5.65301 2.62775 4.94719C2.73798 4.24137 3.00322 3.56631 3.40577 2.96706C3.80832 2.36781 4.33892 1.85816 4.96217 1.4721C5.58542 1.08605 6.28698 0.832476 7.02004 0.728305C7.7531 0.624134 8.50079 0.671761 9.21322 0.868008C9.92565 1.06426 10.5864 1.40461 11.1515 1.86636C11.7165 2.3281 12.1728 2.90063 12.49 3.54572C12.5875 3.70923 12.6488 3.89039 12.6702 4.07782C12.6916 4.26525 12.6726 4.45492 12.6143 4.63494C12.556 4.81495 12.4598 4.98143 12.3316 5.12392C12.2034 5.26642 12.046 5.38187 11.8693 5.46303C11.6926 5.5442 11.5004 5.58932 11.3047 5.59557C11.1091 5.60183 10.9142 5.56908 10.7323 5.49938C10.5504 5.42968 10.3855 5.32454 10.2477 5.19054C10.11 5.05654 10.0025 4.89658 9.93196 4.72069C9.7599 4.37531 9.50032 4.07723 9.17717 3.85394C8.85402 3.63064 8.4777 3.48932 8.08292 3.44301C7.68813 3.3967 7.2876 3.44689 6.91826 3.58895C6.54892 3.73101 6.22266 3.96037 5.96957 4.25587C5.71648 4.55137 5.54471 4.9035 5.47011 5.27978C5.3955 5.65606 5.42046 6.04438 5.54269 6.40893C5.66491 6.77347 5.88046 7.1025 6.16946 7.36567C6.45846 7.62885 6.8116 7.81768 7.19631 7.91477C7.37739 7.9586 7.54761 8.03665 7.6971 8.14439C7.8466 8.25212 7.97237 8.3874 8.06713 8.54235C8.16189 8.69731 8.22374 8.86886 8.24908 9.04703C8.27443 9.22521 8.26277 9.40646 8.21478 9.58026C8.20037 9.63519 8.18054 9.68867 8.15557 9.73996C8.0901 10.006 7.94344 10.247 7.73449 10.432C7.52553 10.6171 7.26384 10.7376 6.98315 10.778Z" fill="#01C3D5"/>
</svg>
