<svg width="28" height="28" viewBox="0 0 28 28" fill="none" xmlns="http://www.w3.org/2000/svg">
<path d="M17.213 11.6667C18.34 11.6667 19.2547 12.5813 19.2547 13.7083V19.2488C19.2547 20.6415 18.7015 21.9772 17.7167 22.962C16.7319 23.9468 15.3962 24.5 14.0035 24.5C12.6108 24.5 11.2752 23.9468 10.2904 22.962C9.30562 21.9772 8.75237 20.6415 8.75237 19.2488V13.7083C8.75237 12.5813 9.66587 11.6667 10.794 11.6667H17.213ZM17.213 13.4167H10.794C10.7167 13.4167 10.6425 13.4474 10.5878 13.5021C10.5331 13.5568 10.5024 13.631 10.5024 13.7083V19.2488C10.5024 20.1774 10.8712 21.0679 11.5278 21.7245C12.1844 22.3811 13.075 22.75 14.0035 22.75C14.9321 22.75 15.8226 22.3811 16.4792 21.7245C17.1358 21.0679 17.5047 20.1774 17.5047 19.2488V13.7083C17.5047 13.631 17.474 13.5568 17.4193 13.5021C17.3646 13.4474 17.2904 13.4167 17.213 13.4167ZM4.37504 11.6667H8.31954C7.90794 12.1638 7.65657 12.7739 7.59854 13.4167H4.37504C4.29769 13.4167 4.2235 13.4474 4.1688 13.5021C4.1141 13.5568 4.08337 13.631 4.08337 13.7083V17.4988C4.0833 17.9397 4.18313 18.3748 4.37536 18.7716C4.56759 19.1683 4.84723 19.5164 5.19326 19.7895C5.5393 20.0627 5.94273 20.2539 6.37327 20.3488C6.8038 20.4437 7.25024 20.4397 7.67904 20.3373C7.77821 20.9253 7.95904 21.4865 8.20754 22.008C7.51603 22.193 6.79125 22.2165 6.08922 22.0766C5.38719 21.9368 4.72673 21.6373 4.15891 21.2014C3.59109 20.7656 3.13113 20.2049 2.81458 19.5629C2.49803 18.9209 2.33339 18.2147 2.33337 17.4988V13.7083C2.33337 12.5813 3.24804 11.6667 4.37504 11.6667ZM19.6875 11.6667H23.625C24.752 11.6667 25.6667 12.5813 25.6667 13.7083V17.5C25.6669 18.2154 25.5026 18.9212 25.1865 19.5629C24.8704 20.2047 24.411 20.7652 23.8439 21.2011C23.2767 21.637 22.6169 21.9367 21.9154 22.077C21.2139 22.2174 20.4896 22.1945 19.7984 22.0103C20.048 21.4877 20.2289 20.9265 20.3292 20.3385C20.7575 20.4397 21.2031 20.4427 21.6327 20.3473C22.0623 20.2518 22.4647 20.0604 22.8098 19.7873C23.1549 19.5143 23.4337 19.1667 23.6254 18.7705C23.8171 18.3744 23.9167 17.9401 23.9167 17.5V13.7083C23.9167 13.631 23.886 13.5568 23.8313 13.5021C23.7766 13.4474 23.7024 13.4167 23.625 13.4167H20.4085C20.3505 12.7739 20.0991 12.1638 19.6875 11.6667ZM14 3.5C14.9283 3.5 15.8185 3.86875 16.4749 4.52513C17.1313 5.1815 17.5 6.07174 17.5 7C17.5 7.92826 17.1313 8.8185 16.4749 9.47487C15.8185 10.1313 14.9283 10.5 14 10.5C13.0718 10.5 12.1815 10.1313 11.5252 9.47487C10.8688 8.8185 10.5 7.92826 10.5 7C10.5 6.07174 10.8688 5.1815 11.5252 4.52513C12.1815 3.86875 13.0718 3.5 14 3.5ZM21.5834 4.66667C22.3569 4.66667 23.0988 4.97396 23.6458 5.52094C24.1927 6.06792 24.5 6.80979 24.5 7.58333C24.5 8.35688 24.1927 9.09875 23.6458 9.64573C23.0988 10.1927 22.3569 10.5 21.5834 10.5C20.8098 10.5 20.068 10.1927 19.521 9.64573C18.974 9.09875 18.6667 8.35688 18.6667 7.58333C18.6667 6.80979 18.974 6.06792 19.521 5.52094C20.068 4.97396 20.8098 4.66667 21.5834 4.66667ZM6.41671 4.66667C7.19026 4.66667 7.93212 4.97396 8.4791 5.52094C9.02608 6.06792 9.33337 6.80979 9.33337 7.58333C9.33337 8.35688 9.02608 9.09875 8.4791 9.64573C7.93212 10.1927 7.19026 10.5 6.41671 10.5C5.64316 10.5 4.90129 10.1927 4.35431 9.64573C3.80733 9.09875 3.50004 8.35688 3.50004 7.58333C3.50004 6.80979 3.80733 6.06792 4.35431 5.52094C4.90129 4.97396 5.64316 4.66667 6.41671 4.66667ZM14 5.25C13.5359 5.25 13.0908 5.43437 12.7626 5.76256C12.4344 6.09075 12.25 6.53587 12.25 7C12.25 7.46413 12.4344 7.90925 12.7626 8.23744C13.0908 8.56563 13.5359 8.75 14 8.75C14.4642 8.75 14.9093 8.56563 15.2375 8.23744C15.5657 7.90925 15.75 7.46413 15.75 7C15.75 6.53587 15.5657 6.09075 15.2375 5.76256C14.9093 5.43437 14.4642 5.25 14 5.25ZM21.5834 6.41667C21.274 6.41667 20.9772 6.53958 20.7584 6.75838C20.5396 6.97717 20.4167 7.27391 20.4167 7.58333C20.4167 7.89275 20.5396 8.1895 20.7584 8.40829C20.9772 8.62708 21.274 8.75 21.5834 8.75C21.8928 8.75 22.1895 8.62708 22.4083 8.40829C22.6271 8.1895 22.75 7.89275 22.75 7.58333C22.75 7.27391 22.6271 6.97717 22.4083 6.75838C22.1895 6.53958 21.8928 6.41667 21.5834 6.41667ZM6.41671 6.41667C6.10729 6.41667 5.81054 6.53958 5.59175 6.75838C5.37296 6.97717 5.25004 7.27391 5.25004 7.58333C5.25004 7.89275 5.37296 8.1895 5.59175 8.40829C5.81054 8.62708 6.10729 8.75 6.41671 8.75C6.72613 8.75 7.02287 8.62708 7.24166 8.40829C7.46046 8.1895 7.58337 7.89275 7.58337 7.58333C7.58337 7.27391 7.46046 6.97717 7.24166 6.75838C7.02287 6.53958 6.72613 6.41667 6.41671 6.41667Z" fill="#01C3D5"/>
</svg>
