<svg width="28" height="28" viewBox="0 0 28 28" fill="none" xmlns="http://www.w3.org/2000/svg">
<path d="M17.213 11.6667C18.34 11.6667 19.2546 12.5813 19.2546 13.7083V19.2488C19.2546 20.6415 18.7014 21.9772 17.7166 22.962C16.7318 23.9468 15.3962 24.5 14.0035 24.5C12.6108 24.5 11.2751 23.9468 10.2903 22.962C9.30556 21.9772 8.75231 20.6415 8.75231 19.2488V13.7083C8.75231 12.5813 9.66581 11.6667 10.794 11.6667H17.213ZM17.213 13.4167H10.794C10.7166 13.4167 10.6424 13.4474 10.5877 13.5021C10.533 13.5568 10.5023 13.631 10.5023 13.7083V19.2488C10.5023 20.1774 10.8712 21.0679 11.5278 21.7245C12.1844 22.3811 13.0749 22.75 14.0035 22.75C14.932 22.75 15.8226 22.3811 16.4792 21.7245C17.1358 21.0679 17.5046 20.1774 17.5046 19.2488V13.7083C17.5046 13.631 17.4739 13.5568 17.4192 13.5021C17.3645 13.4474 17.2903 13.4167 17.213 13.4167ZM4.37498 11.6667H8.31948C7.90788 12.1638 7.65651 12.7739 7.59848 13.4167H4.37498C4.29762 13.4167 4.22344 13.4474 4.16874 13.5021C4.11404 13.5568 4.08331 13.631 4.08331 13.7083V17.4988C4.08324 17.9397 4.18307 18.3748 4.3753 18.7716C4.56753 19.1683 4.84716 19.5164 5.1932 19.7895C5.53923 20.0627 5.94267 20.2539 6.37321 20.3488C6.80374 20.4437 7.25018 20.4397 7.67898 20.3373C7.77815 20.9253 7.95898 21.4865 8.20748 22.008C7.51597 22.193 6.79118 22.2165 6.08916 22.0766C5.38713 21.9368 4.72667 21.6373 4.15885 21.2014C3.59103 20.7656 3.13107 20.2049 2.81452 19.5629C2.49797 18.9209 2.33333 18.2147 2.33331 17.4988V13.7083C2.33331 12.5813 3.24798 11.6667 4.37498 11.6667ZM19.6875 11.6667H23.625C24.752 11.6667 25.6666 12.5813 25.6666 13.7083V17.5C25.6668 18.2154 25.5025 18.9212 25.1864 19.5629C24.8704 20.2047 24.411 20.7652 23.8438 21.2011C23.2766 21.637 22.6168 21.9367 21.9153 22.077C21.2139 22.2174 20.4895 22.1945 19.7983 22.0103C20.048 21.4877 20.2288 20.9265 20.3291 20.3385C20.7574 20.4397 21.203 20.4427 21.6326 20.3473C22.0622 20.2518 22.4646 20.0604 22.8097 19.7873C23.1548 19.5143 23.4337 19.1667 23.6254 18.7705C23.8171 18.3744 23.9166 17.9401 23.9166 17.5V13.7083C23.9166 13.631 23.8859 13.5568 23.8312 13.5021C23.7765 13.4474 23.7023 13.4167 23.625 13.4167H20.4085C20.3505 12.7739 20.0991 12.1638 19.6875 11.6667ZM14 3.5C14.9282 3.5 15.8185 3.86875 16.4749 4.52513C17.1312 5.1815 17.5 6.07174 17.5 7C17.5 7.92826 17.1312 8.8185 16.4749 9.47487C15.8185 10.1313 14.9282 10.5 14 10.5C13.0717 10.5 12.1815 10.1313 11.5251 9.47487C10.8687 8.8185 10.5 7.92826 10.5 7C10.5 6.07174 10.8687 5.1815 11.5251 4.52513C12.1815 3.86875 13.0717 3.5 14 3.5ZM21.5833 4.66667C22.3569 4.66667 23.0987 4.97396 23.6457 5.52094C24.1927 6.06792 24.5 6.80979 24.5 7.58333C24.5 8.35688 24.1927 9.09875 23.6457 9.64573C23.0987 10.1927 22.3569 10.5 21.5833 10.5C20.8098 10.5 20.0679 10.1927 19.5209 9.64573C18.9739 9.09875 18.6666 8.35688 18.6666 7.58333C18.6666 6.80979 18.9739 6.06792 19.5209 5.52094C20.0679 4.97396 20.8098 4.66667 21.5833 4.66667ZM6.41665 4.66667C7.19019 4.66667 7.93206 4.97396 8.47904 5.52094C9.02602 6.06792 9.33331 6.80979 9.33331 7.58333C9.33331 8.35688 9.02602 9.09875 8.47904 9.64573C7.93206 10.1927 7.19019 10.5 6.41665 10.5C5.6431 10.5 4.90123 10.1927 4.35425 9.64573C3.80727 9.09875 3.49998 8.35688 3.49998 7.58333C3.49998 6.80979 3.80727 6.06792 4.35425 5.52094C4.90123 4.97396 5.6431 4.66667 6.41665 4.66667ZM14 5.25C13.5359 5.25 13.0907 5.43437 12.7625 5.76256C12.4344 6.09075 12.25 6.53587 12.25 7C12.25 7.46413 12.4344 7.90925 12.7625 8.23744C13.0907 8.56563 13.5359 8.75 14 8.75C14.4641 8.75 14.9092 8.56563 15.2374 8.23744C15.5656 7.90925 15.75 7.46413 15.75 7C15.75 6.53587 15.5656 6.09075 15.2374 5.76256C14.9092 5.43437 14.4641 5.25 14 5.25ZM21.5833 6.41667C21.2739 6.41667 20.9771 6.53958 20.7584 6.75838C20.5396 6.97717 20.4166 7.27391 20.4166 7.58333C20.4166 7.89275 20.5396 8.1895 20.7584 8.40829C20.9771 8.62708 21.2739 8.75 21.5833 8.75C21.8927 8.75 22.1895 8.62708 22.4083 8.40829C22.6271 8.1895 22.75 7.89275 22.75 7.58333C22.75 7.27391 22.6271 6.97717 22.4083 6.75838C22.1895 6.53958 21.8927 6.41667 21.5833 6.41667ZM6.41665 6.41667C6.10723 6.41667 5.81048 6.53958 5.59169 6.75838C5.3729 6.97717 5.24998 7.27391 5.24998 7.58333C5.24998 7.89275 5.3729 8.1895 5.59169 8.40829C5.81048 8.62708 6.10723 8.75 6.41665 8.75C6.72607 8.75 7.02281 8.62708 7.2416 8.40829C7.4604 8.1895 7.58331 7.89275 7.58331 7.58333C7.58331 7.27391 7.4604 6.97717 7.2416 6.75838C7.02281 6.53958 6.72607 6.41667 6.41665 6.41667Z" fill="#790707"/>
</svg>
