<svg width="27" height="27" viewBox="0 0 27 27" fill="none" xmlns="http://www.w3.org/2000/svg">
<path d="M7.87512 4.5C7.87512 3.25125 6.87387 2.25 5.62512 2.25C4.37637 2.25 3.37512 3.25125 3.37512 4.5C3.37512 5.74875 4.37637 6.75 5.62512 6.75C6.87387 6.75 7.87512 5.74875 7.87512 4.5ZM11.4639 5.0625C11.0026 5.0625 10.6089 5.34375 10.4289 5.77125C10.1801 6.39385 9.75002 6.92733 9.19434 7.30246C8.63866 7.6776 7.98307 7.87707 7.31262 7.875H3.93762C3.00387 7.875 2.25012 8.62875 2.25012 9.5625V12.375H9.00012V9.8325C9.79209 9.58272 10.5182 9.15915 11.1255 8.59275C11.7328 8.02635 12.2059 7.33142 12.5101 6.55875C12.8026 5.83875 12.2401 5.0625 11.4639 5.0625ZM21.3751 19.125C22.6239 19.125 23.6251 18.1237 23.6251 16.875C23.6251 15.6263 22.6239 14.625 21.3751 14.625C20.1264 14.625 19.1251 15.6263 19.1251 16.875C19.1251 18.1237 20.1264 19.125 21.3751 19.125ZM23.0626 20.25H19.6876C18.2701 20.25 17.0664 19.3837 16.5714 18.1462C16.4905 17.9375 16.3484 17.758 16.1637 17.6315C15.9789 17.505 15.7603 17.4374 15.5364 17.4375C14.7601 17.4375 14.1976 18.2137 14.4789 18.9338C14.7849 19.7054 15.2585 20.3994 15.8655 20.9655C16.4726 21.5317 17.1978 21.9559 17.9889 22.2075V24.75H24.7389V21.9375C24.7501 21.0037 23.9964 20.25 23.0626 20.25ZM19.4064 12.4762C19.4064 12.4762 19.4064 12.465 19.4176 12.4762C18.8297 12.6279 18.2931 12.9343 17.8638 13.3637C17.4345 13.793 17.128 14.3296 16.9764 14.9175V14.9062C16.8526 15.39 16.4026 15.75 15.8739 15.75C15.2551 15.75 14.7489 15.2437 14.7489 14.625C14.7489 14.5688 14.7714 14.4675 14.7714 14.4675C15.0107 13.443 15.5331 12.5064 16.279 11.7644C17.025 11.0225 17.9644 10.5051 18.9901 10.2712C19.0351 10.2712 19.0801 10.26 19.1251 10.26C19.7439 10.26 20.2501 10.7662 20.2501 11.385C20.2501 11.9025 19.8901 12.3525 19.4064 12.4762ZM20.2501 6.8175C20.2501 7.39125 19.8339 7.8525 19.2826 7.93125C15.6939 8.37 12.8701 11.205 12.4314 14.7937C12.3848 15.071 12.2362 15.3209 12.0149 15.4942C11.7935 15.6676 11.5154 15.752 11.235 15.7309C10.9546 15.7098 10.6923 15.5846 10.4994 15.38C10.3066 15.1754 10.1972 14.9061 10.1926 14.625V14.5238C10.7551 9.88875 14.4564 6.22125 19.1026 5.6925H19.1139C19.7439 5.6925 20.2501 6.19875 20.2501 6.8175Z" fill="#01C3D5"/>
</svg>
