<svg width="26" height="26" viewBox="0 0 26 26" fill="none" xmlns="http://www.w3.org/2000/svg">
<path d="M14.8958 2.1665C15.5422 2.1665 16.1622 2.42331 16.6193 2.88043C17.0764 3.33755 17.3333 3.95754 17.3333 4.604V13.9998C16.9346 14.055 16.5424 14.2424 16.2207 14.5848L15.7083 15.1329V4.604C15.7083 4.38852 15.6226 4.18185 15.4703 4.02948C15.3179 3.87711 15.1112 3.7915 14.8958 3.7915H6.77075C6.55526 3.7915 6.3486 3.87711 6.19623 4.02948C6.04385 4.18185 5.95825 4.38852 5.95825 4.604V21.3957C5.95825 21.8442 6.32225 22.2082 6.77075 22.2082H14.8958C14.9769 22.2083 15.0576 22.1962 15.1352 22.1724L16.2207 23.3305L16.2868 23.3977C15.8787 23.6819 15.3931 23.834 14.8958 23.8332H6.77075C6.12429 23.8332 5.5043 23.5764 5.04718 23.1192C4.59006 22.6621 4.33325 22.0421 4.33325 21.3957V4.604C4.33325 3.95754 4.59006 3.33755 5.04718 2.88043C5.5043 2.42331 6.12429 2.1665 6.77075 2.1665H14.8958ZM9.478 18.9625L11.9166 18.9582V20.5832L9.48017 20.5875C9.26468 20.5878 9.0579 20.5025 8.90533 20.3503C8.75275 20.1981 8.66687 19.9916 8.66659 19.7761C8.6663 19.5606 8.75163 19.3538 8.9038 19.2012C9.05596 19.0487 9.26251 18.9628 9.478 18.9625ZM23.9882 15.4937C23.6328 14.9011 23.2678 14.4959 22.9991 14.2717C22.9175 14.2003 22.8226 14.146 22.7197 14.1119C22.6169 14.0779 22.5083 14.0647 22.4003 14.0732C22.2923 14.0817 22.187 14.1117 22.0908 14.1615C21.9946 14.2113 21.9093 14.2798 21.8399 14.363C21.7706 14.4463 21.7186 14.5425 21.6869 14.6462C21.6553 14.7498 21.6448 14.8587 21.6559 14.9665C21.667 15.0742 21.6995 15.1787 21.7516 15.2737C21.8037 15.3687 21.8742 15.4523 21.9591 15.5197C22.0967 15.6345 22.3415 15.9064 22.595 16.3289C23.0294 17.0548 23.2916 17.9268 23.2916 18.9582C23.2916 19.9895 23.0294 20.8627 22.595 21.5874C22.3415 22.0099 22.0967 22.2818 21.9591 22.3967C21.8742 22.464 21.8037 22.5476 21.7516 22.6427C21.6995 22.7377 21.667 22.8421 21.6559 22.9499C21.6448 23.0577 21.6553 23.1666 21.6869 23.2702C21.7186 23.3738 21.7706 23.4701 21.8399 23.5533C21.9093 23.6365 21.9946 23.7051 22.0908 23.7548C22.187 23.8046 22.2923 23.8346 22.4003 23.8431C22.5083 23.8517 22.6169 23.8385 22.7197 23.8044C22.8226 23.7703 22.9175 23.716 22.9991 23.6447C23.2678 23.4204 23.6328 23.0163 23.9882 22.4227C24.5688 21.4553 24.9166 20.2972 24.9166 18.9582C24.9166 17.6192 24.5699 16.4611 23.9882 15.4937ZM21.5301 16.6799C21.3328 16.3719 21.0861 16.0985 20.7999 15.8707C20.6275 15.7414 20.4108 15.6859 20.1975 15.7163C19.9842 15.7468 19.7917 15.8608 19.6624 16.0332C19.5331 16.2056 19.4776 16.4223 19.5081 16.6356C19.5386 16.8489 19.6525 17.0414 19.8249 17.1707C19.8921 17.2205 20.0308 17.3603 20.1781 17.5813C20.4316 17.9604 20.5833 18.4154 20.5833 18.9582C20.5833 19.4998 20.4316 19.9548 20.1781 20.3351C20.0815 20.4888 19.9625 20.6272 19.8249 20.7457L19.7339 20.8248C19.5893 20.9706 19.5053 21.1658 19.4988 21.3711C19.4923 21.5764 19.5638 21.7765 19.6989 21.9312C19.8339 22.0859 20.0226 22.1837 20.2269 22.205C20.4312 22.2262 20.6359 22.1693 20.7999 22.0457C21.0047 21.8929 21.2712 21.6253 21.5301 21.2364C21.9792 20.5621 22.2155 19.7684 22.2083 18.9582C22.2083 18.0785 21.9537 17.3148 21.5301 16.6788V16.6799ZM18.4166 15.979C18.4165 15.8138 18.3661 15.6525 18.272 15.5167C18.1779 15.3809 18.0447 15.277 17.89 15.2189C17.7354 15.1607 17.5667 15.1511 17.4064 15.1913C17.2462 15.2315 17.102 15.3196 16.9931 15.4438L15.3399 17.3332H13.8124C13.5969 17.3332 13.3903 17.4188 13.2379 17.5711C13.0855 17.7235 12.9999 17.9302 12.9999 18.1457V19.7707C12.9999 20.2192 13.3639 20.5832 13.8124 20.5832H15.3399L16.9931 22.4725C17.102 22.5967 17.2462 22.6848 17.4064 22.725C17.5667 22.7652 17.7354 22.7556 17.89 22.6975C18.0447 22.6393 18.1779 22.5354 18.272 22.3996C18.3661 22.2638 18.4165 22.1025 18.4166 21.9373V15.979Z" fill="#01C3D5"/>
</svg>
