<svg width="26" height="26" viewBox="0 0 26 26" fill="none" xmlns="http://www.w3.org/2000/svg">
<g clip-path="url(#clip0_308_930)">
<path d="M8.813 0.000128548C8.58133 0.044191 8.37268 0.16871 8.22392 0.351692C8.07516 0.534673 7.99585 0.764341 8 1.00013V2.00013H4.406C3.606 2.00013 3 2.60613 3 3.40613V24.5001C3 25.4001 3.606 26.0001 4.406 26.0001H21.5C22.3 26.0001 22.906 25.3941 22.906 24.5941V3.40613C23.006 2.60613 22.394 2.00013 21.594 2.00013H18V1.00013C18 0.734912 17.8946 0.480558 17.7071 0.293022C17.5196 0.105485 17.2652 0.000128548 17 0.000128548H9C8.96868 -0.00134493 8.93732 -0.00134493 8.906 0.000128548C8.87468 -0.00134493 8.84332 -0.00134493 8.812 0.000128548H8.813ZM10 2.00013H16V4.00013H10V2.00013ZM5 4.00013H8V5.00013C8 5.26535 8.10536 5.5197 8.29289 5.70724C8.48043 5.89477 8.73478 6.00013 9 6.00013H17C17.2652 6.00013 17.5196 5.89477 17.7071 5.70724C17.8946 5.5197 18 5.26535 18 5.00013V4.00013H21V24.0001H5V4.00013ZM7 9.00013V13.0001H11V9.00013H7ZM8 10.0001H10V12.0001H8V10.0001ZM13 10.0001V12.0001H19V10.0001H13ZM7 15.0001V19.0001H11V15.0001H7ZM13 16.0001V18.0001H19V16.0001H13Z" fill="#01C3D5"/>
</g>
<defs>
<clipPath id="clip0_308_930">
<rect width="26" height="26" fill="white"/>
</clipPath>
</defs>
</svg>
