<svg width="83" height="64" viewBox="0 0 83 64" fill="none" xmlns="http://www.w3.org/2000/svg">
<path d="M32.6727 30.3663C32.6727 8.53328 10.8909 1.1531 0 0.192139V32.6726C1.07628 58.657 22.2302 64.1281 32.6727 63.6156V30.3663Z" fill="url(#paint0_linear_311_2784)"/>
<path d="M62.8469 40.5525H35.7478C35.7478 55.4666 48.4325 62.3983 54.7748 63.9999H82.6427C83.2577 63.9999 82.6427 44.5885 62.8469 40.5525Z" fill="url(#paint1_linear_311_2784)"/>
<path d="M59.1945 40.3604H35.9399C35.9399 55.2745 46.825 62.2062 52.2676 63.8078H76.1818C76.7096 63.8078 76.1818 44.3964 59.1945 40.3604Z" fill="url(#paint2_linear_311_2784)"/>
<mask id="mask0_311_2784" style="mask-type:alpha" maskUnits="userSpaceOnUse" x="0" y="0" width="33" height="64">
<path d="M32.6727 30.3663C32.6727 8.53328 10.8909 1.1531 0 0.192139V32.6726C1.07628 58.657 22.2302 64.1281 32.6727 63.6156V30.3663Z" fill="url(#paint3_linear_311_2784)"/>
</mask>
<g mask="url(#mask0_311_2784)">
<path fill-rule="evenodd" clip-rule="evenodd" d="M7.3419 49.8164V47.9327C7.3419 47.682 7.56322 47.4788 7.83622 47.4788H13.0018C12.9782 47.33 12.959 47.1567 12.9476 46.9663C12.8758 45.763 13.1173 43.8737 14.5342 43.1213V42.5312C14.5342 42.2805 14.7555 42.0773 15.0285 42.0773H15.6217C15.6323 42.008 15.6567 41.92 15.6972 41.821C15.9087 41.304 16.5591 40.4886 17.9697 40.4886C19.5783 40.4886 20.2263 41.2653 20.4103 41.821C20.4411 41.9142 20.4589 42.0012 20.466 42.0773H20.9356C21.2086 42.0773 21.4299 42.2805 21.4299 42.5312V43.1213C22.0551 43.1356 23.2244 43.9395 23.1574 46.9663C23.1538 47.1305 23.1465 47.3013 23.1353 47.4788H28.0538C28.3268 47.4788 28.5481 47.682 28.5481 47.9327V49.8164L31.9882 52.3842C32.045 52.4266 32.0824 52.478 32.1029 52.5326H33.5056V63.7567H-2.3703V52.5326H4.03631C4.0323 52.4053 4.08694 52.2748 4.2148 52.1782L7.3419 49.8164ZM3.6709 52.0201C3.73046 51.9279 3.80854 51.8428 3.90592 51.7692L6.82939 49.5613V47.9327C6.82939 47.3587 7.32218 46.9663 7.83622 46.9663H12.4343C12.4043 46.4218 12.4339 45.7563 12.589 45.1004C12.7856 44.2688 13.2015 43.3869 14.0217 42.8322V42.5312C14.0217 41.9572 14.5145 41.5648 15.0285 41.5648H15.2503C15.5573 40.8786 16.3766 39.9761 17.9697 39.9761C19.7125 39.9761 20.571 40.8131 20.8632 41.5648H20.9356C21.4497 41.5648 21.9425 41.9572 21.9425 42.5312V42.7134C22.3456 42.8719 22.7484 43.2132 23.0575 43.7598C23.4489 44.4518 23.7015 45.4819 23.6701 46.9663H28.0538C28.5678 46.9663 29.0606 47.3587 29.0606 47.9327V49.5594L32.2948 51.9735C32.3148 51.9885 32.334 52.004 32.3523 52.0201H34.0181V64.2692H-2.88281V52.0201H3.6709Z" fill="white"/>
<path d="M15.1831 46.5675V46.0692C15.1831 45.6761 15.5273 45.3574 15.9519 45.3574H20.1801C20.6047 45.3574 20.9489 45.6761 20.9489 46.0692V46.5675C20.9489 46.9606 20.6047 47.2793 20.1801 47.2793H15.9519C15.5273 47.2793 15.1831 46.9606 15.1831 46.5675Z" fill="white"/>
</g>
<path d="M35.3633 18.4505V37.4775C50.8924 37.4775 55.5435 24.7928 55.9278 18.4505V0C42.09 0 36.4524 12.3003 35.3633 18.4505Z" fill="#296EAD"/>
<defs>
<linearGradient id="paint0_linear_311_2784" x1="-3.07508" y1="-7.11116" x2="35.9399" y2="75.3393" gradientUnits="userSpaceOnUse">
<stop stop-color="#01BAE6"/>
<stop offset="1" stop-color="#0194CB"/>
</linearGradient>
<linearGradient id="paint1_linear_311_2784" x1="33.6337" y1="40.3603" x2="88.4085" y2="70.5345" gradientUnits="userSpaceOnUse">
<stop stop-color="#01BEE2"/>
<stop offset="1" stop-color="#00F5FF"/>
</linearGradient>
<linearGradient id="paint2_linear_311_2784" x1="38.4384" y1="33.2492" x2="61.2506" y2="57.9632" gradientUnits="userSpaceOnUse">
<stop stop-color="#01BEE2"/>
<stop offset="1" stop-color="#00F5FF"/>
</linearGradient>
<linearGradient id="paint3_linear_311_2784" x1="-3.07508" y1="-7.11116" x2="35.9399" y2="75.3393" gradientUnits="userSpaceOnUse">
<stop stop-color="#01BAE6"/>
<stop offset="1" stop-color="#0194CB"/>
</linearGradient>
</defs>
</svg>
